# ProBuilder 4.4.0
# https://unity3d.com/unity/features/worldbuilding/probuilder
# 20.06.2021 16:08:22

mtllib ./GrassMesh2.mtl
o GrassMesh2

g GrassMesh2
v 0.5 -0.5 -3.061617E-17
v -0.5 0.5 3.061617E-17
v -0.5 -0.5 -3.061617E-17
v 0.5 0.5 3.061617E-17
v -0.4192288 -0.5 -0.1921255
v 0.08077134 0.5000001 0.6738998
v 0.08077134 -0.5 0.6738998
v -0.4192288 0.5000001 -0.1921255
v 0.3405455 -0.5 -0.2381833
v -0.1594544 0.5000001 0.6278422
v -0.1594544 -0.5 0.6278422
v 0.3405455 0.5000001 -0.2381833

vt 0 0
vt 1 1
vt 1 0
vt 0 1

vn 0 6.123234E-17 -1
vn -0.8660253 0 0.5000001
vn -0.8660255 0 -0.4999999

usemtl GrassMaterial0
f 4/4/1 1/1/1 3/3/1 2/2/1
f 8/4/2 5/1/2 7/3/2 6/2/2
f 12/4/3 9/1/3 11/3/3 10/2/3

